<svg xmlns="http://www.w3.org/2000/svg" viewBox="0 0 305 305" preserveAspectRatio="xMidYMid meet"><g transform="translate(0.000000,305.000000) scale(0.100000,-0.100000)" fill="#ffffff" fill-opacity=".45" class="ink" stroke="none"> <path d="M641 2671 c-6 -11 -11 -28 -11 -38 0 -13 -19 -27 -65 -47 -64 -28 -64 -28 -91 -7 -31 25 -39 21 -93 -41 -45 -51 -49 -63 -25 -90 26 -28 -29 -151 -72 -158 -29 -5 -29 -5 -32 -86 -3 -82 -3 -82 33 -88 19 -4 35 -12 35 -19 0 -7 11 -36 25 -65 25 -53 25 -53 3 -83 -22 -29 -22 -29 32 -84 61 -62 65 -63 95 -35 22 21 22 21 91 -12 59 -28 70 -37 74 -63 5 -30 5 -30 85 -30 80 0 80 0 85 30 4 25 16 35 73 62 68 33 68 33 94 13 31 -24 44 -18 101 44 48 52 49 56 22 81 -13 11 -18 25 -14 34 3 9 14 38 24 66 15 40 24 51 52 61 33 11 33 11 33 90 0 78 0 79 -27 82 -32 4 -37 11 -67 84 -21 53 -21 59 -7 80 25 35 20 52 -35 103 -48 45 -51 46 -72 31 -37 -28 -41 -27 -109 4 -61 27 -67 33 -70 62 -3 33 -3 33 -80 36 -68 2 -78 1 -87 -17z m182 -187 c165 -56 240 -252 159 -417 -53 -107 -137 -159 -258 -160 -266 -2 -394 314 -205 504 85 84 194 111 304 73z"/> <path d="M641 2349 c-187 -114 -36 -398 159 -299 116 59 122 236 10 299 -50 28 -123 28 -169 0z"/> <path d="M1251 2363 c100 -288 -80 -619 -381 -699 -36 -9 -70 -24 -77 -31 -7 -9 -31 -14 -68 -14 -106 0 -105 1 -105 -146 0 -71 4 -134 9 -142 7 -10 29 -13 85 -12 75 2 75 2 82 -26 3 -15 13 -53 21 -83 29 -109 33 -99 -37 -102 -101 -5 -101 -28 -3 -191 34 -57 34 -57 109 -57 l74 0 0 -225 c0 -286 -15 -265 189 -265 180 0 177 -2 185 107 7 86 16 163 19 163 1 0 29 -9 62 -19 148 -47 340 -47 487 -1 34 11 63 18 65 16 1 -1 7 -53 13 -116 13 -155 6 -150 190 -150 198 0 183 -22 181 265 l-2 225 75 0 c87 0 94 6 160 138 49 97 42 112 -51 112 -63 0 -65 1 -58 23 4 12 17 57 28 100 22 77 22 77 74 77 53 0 53 0 53 -52 0 -29 4 -59 9 -67 14 -22 106 -27 136 -7 25 16 25 16 25 279 0 191 -3 266 -12 275 -16 16 -130 16 -146 0 -7 -7 -12 -38 -12 -71 0 -58 0 -58 -51 -55 -51 3 -51 3 -83 100 -36 110 -37 108 55 108 87 0 84 40 -16 196 -35 54 -35 54 -130 54 l-95 0 0 159 c0 204 11 191 -170 191 -158 0 -161 -1 -175 -88 -6 -35 -10 -42 -23 -37 -121 47 -379 56 -507 17 -81 -24 -75 -26 -82 30 -9 69 -17 78 -73 78 l-49 0 20 -57z m590 -406 c-10 -25 -7 -27 43 -50 80 -37 174 -135 222 -231 36 -74 39 -86 42 -182 10 -246 -122 -433 -356 -509 -54 -17 -234 -18 -272 -1 -11 4 -21 -3 -34 -24 -22 -38 -32 -32 -18 9 10 29 9 30 -46 58 -232 116 -338 456 -206 664 13 21 24 43 24 49 0 6 27 37 60 70 121 120 309 178 457 140 46 -11 49 -11 67 14 24 31 30 28 17 -7z"/> </g><g transform="translate(0.000000,305.000000) scale(0.100000,-0.100000)" fill="#ffffff" class="accent" stroke="none"> <path d="M1537 1949 c-94 -22 -297 -165 -297 -209 0 -6 -11 -28 -24 -49 -104 -164 -63 -425 89 -576 60 -59 162 -122 176 -107 12 13 128 366 123 374 -3 4 -50 8 -106 8 -98 0 -100 1 -87 19 8 11 97 129 198 262 100 134 185 248 188 255 11 29 -167 45 -260 23z"/> <path d="M1762 1742 c-34 -103 -62 -193 -62 -199 0 -9 32 -13 106 -15 l106 -3 -64 -80 c-166 -207 -339 -448 -328 -459 19 -19 211 -20 272 -1 234 76 366 263 356 509 -3 96 -6 108 -42 182 -56 114 -167 218 -261 248 -19 5 -26 -11 -83 -182z"/> </g></svg>
