<svg xmlns="http://www.w3.org/2000/svg" viewBox="0 0 443 443" preserveAspectRatio="xMidYMid meet"><g transform="translate(0.000000,443.000000) scale(0.100000,-0.100000)" fill="#ffffff" fill-opacity=".45" class="ink" stroke="none"> <path d="M1869 2848 c-79 -53 -129 -157 -129 -269 l0 -56 -106 -2 c-265 -6 -322 -28 -662 -249 l-203 -132 -186 -30 c-147 -23 -191 -34 -207 -49 -23 -24 -44 -151 -45 -278 -1 -70 -4 -82 -19 -87 -45 -15 -64 -51 -63 -123 1 -110 46 -249 89 -272 15 -8 263 -51 296 -51 10 0 15 21 18 74 6 94 48 186 119 261 262 277 729 85 729 -300 l0 -75 735 0 735 0 -6 38 c-16 99 43 258 126 342 272 271 729 72 730 -317 l0 -63 130 0 c194 0 248 32 200 118 -23 40 -23 40 1 78 17 29 24 56 27 119 4 82 4 82 -35 114 -31 24 -43 45 -57 91 -23 76 -50 104 -139 145 -123 57 -327 106 -626 150 -103 15 -104 16 -205 86 -55 39 -171 118 -257 177 -86 59 -163 119 -171 133 -11 19 -40 36 -99 60 -88 34 -217 45 -550 48 l-97 1 33 63 c40 77 50 114 30 114 -8 0 -24 -21 -36 -46 -12 -25 -35 -65 -52 -88 -29 -41 -32 -43 -84 -43 -53 0 -53 0 -53 55 0 115 73 235 156 256 36 9 42 14 33 25 -18 22 -50 16 -100 -18z m75 -620 c-4 -101 -8 -184 -9 -186 -6 -8 -739 18 -748 27 -18 18 3 45 130 175 82 84 133 128 157 136 43 14 201 27 359 29 l118 1 -7 -182z m333 172 c212 -13 251 -28 440 -166 177 -130 273 -204 273 -211 0 -8 -884 8 -892 15 -5 5 -48 333 -48 367 0 7 54 6 227 -5z"/> <path d="M987 1620 c-203 -52 -311 -284 -221 -479 119 -261 490 -270 616 -14 110 225 -39 485 -286 498 -39 3 -88 0 -109 -5z m193 -200 c114 -81 77 -263 -62 -301 -135 -36 -250 103 -194 234 42 97 167 130 256 67z"/> <path d="M3293 1616 c-292 -96 -330 -491 -61 -637 84 -45 220 -50 303 -9 64 31 134 101 165 165 41 83 37 228 -9 313 -61 113 -154 172 -281 178 -47 3 -91 -1 -117 -10z m142 -167 c55 -14 111 -72 121 -124 34 -182 -183 -286 -298 -144 -75 93 -23 241 95 269 17 4 33 8 35 9 2 1 23 -4 47 -10z"/> </g><g transform="translate(0.000000,443.000000) scale(0.100000,-0.100000)" fill="#ffffff" class="accent" stroke="none"> <path d="M2006 3478 c-8 -13 -68 -125 -135 -250 l-120 -228 26 -86 c15 -47 32 -88 39 -91 15 -5 90 46 86 59 -11 39 69 60 104 27 57 -54 2 -131 -70 -98 -14 7 -23 16 -19 21 10 18 -31 -9 -56 -35 -12 -14 -20 -30 -17 -35 11 -18 108 -63 123 -58 11 5 14 1 9 -11 -5 -16 -4 -16 7 -3 17 21 41 25 33 5 -3 -9 -2 -13 4 -10 6 3 10 13 10 20 0 9 22 20 58 30 31 9 64 19 72 24 30 16 282 484 278 515 -2 10 -25 30 -53 45 -216 117 -339 181 -351 181 -7 0 -20 -10 -28 -22z"/> </g></svg>
