<svg xmlns="http://www.w3.org/2000/svg" viewBox="0 0 358 358" preserveAspectRatio="xMidYMid meet"><g transform="translate(0.000000,358.000000) scale(0.100000,-0.100000)" fill="#071416" class="ink" stroke="none"> <path d="M1202 3310 c-438 -62 -816 -393 -922 -808 -166 -655 282 -1303 949 -1371 261 -27 544 49 749 201 l53 39 37 -30 c20 -16 57 -49 80 -74 44 -44 44 -45 28 -75 -9 -17 -16 -48 -16 -69 0 -36 13 -51 322 -360 l322 -322 180 186 c100 102 182 191 184 197 1 6 -142 155 -318 331 -312 312 -321 320 -359 320 -26 0 -51 -9 -72 -24 -31 -23 -31 -23 -109 54 l-78 77 44 71 c261 424 192 994 -164 1345 -238 234 -595 356 -910 312z m338 -312 c529 -133 773 -764 469 -1217 -327 -489 -1024 -483 -1347 11 -165 254 -163 612 5 865 194 292 536 426 873 341z"/> <path d="M1233 2830 c-485 -88 -674 -693 -324 -1041 335 -333 861 -203 1017 251 29 85 27 292 -4 382 -97 281 -400 460 -689 408z"/> </g><g transform="translate(0.000000,358.000000) scale(0.100000,-0.100000)" fill="#0ab2c1" class="accent" stroke="none"> <path d="M2987 631 l-188 -195 63 -64 c136 -137 170 -132 347 57 160 171 164 205 39 327 l-73 71 -188 -196z"/> </g></svg>
