<svg xmlns="http://www.w3.org/2000/svg" viewBox="0 0 358 358" preserveAspectRatio="xMidYMid meet"><g transform="translate(0.000000,358.000000) scale(0.100000,-0.100000)" fill="#d48202" class="ink" stroke="none"> <path d="M1645 2233 c-129 -18 -300 -85 -412 -161 -159 -108 -371 -408 -387 -547 -1 -11 -8 -39 -14 -62 -40 -139 -26 -441 24 -490 8 -8 14 -30 14 -48 0 -43 10 -67 84 -194 60 -102 207 -271 236 -271 7 0 21 -11 31 -24 37 -47 298 -165 306 -138 3 6 14 12 25 12 14 0 18 -5 13 -19 -14 -46 289 -54 455 -11 170 44 317 127 449 254 87 84 221 282 221 328 0 7 6 24 13 38 26 50 50 158 45 204 -4 32 -1 49 8 57 17 14 20 144 3 154 -5 4 -7 19 -4 34 6 30 -18 148 -34 164 -6 6 -11 24 -11 39 0 38 -53 153 -74 161 -9 4 -16 18 -16 32 0 46 -159 236 -259 309 -192 141 -477 212 -716 179z m267 -394 c454 -93 626 -693 294 -1024 -390 -388 -1041 -93 -1013 460 19 372 358 638 719 564z"/> <path d="M1638 1721 c-59 -19 -148 -66 -148 -79 0 -4 38 -45 84 -91 79 -79 85 -83 112 -74 29 10 29 10 32 136 3 143 8 136 -80 108z"/> <path d="M1850 1615 c0 -125 0 -125 33 -139 32 -14 32 -14 116 69 57 57 82 88 78 99 -10 26 -168 95 -219 96 -5 0 -8 -56 -8 -125z"/> <path d="M1366 1503 c-29 -43 -66 -141 -66 -173 0 -19 6 -20 124 -20 124 0 124 0 131 31 7 30 2 37 -78 117 l-85 85 -26 -40z"/> <path d="M2092 1451 c-75 -82 -81 -92 -72 -115 9 -26 10 -26 131 -26 l121 0 -6 36 c-11 54 -45 137 -69 167 -22 27 -22 27 -105 -62z"/> <path d="M1723 1364 c-90 -45 -96 -182 -11 -234 68 -41 165 -14 194 55 52 125 -64 238 -183 179z"/> <path d="M1300 1157 c0 -38 73 -207 90 -207 3 0 43 37 88 83 74 74 82 87 77 110 -7 27 -7 27 -131 27 -97 0 -124 -3 -124 -13z"/> <path d="M2015 1143 c-5 -23 3 -36 77 -110 45 -46 85 -83 88 -83 17 0 90 169 90 207 0 10 -27 13 -124 13 -124 0 -124 0 -131 -27z"/> <path d="M1572 937 c-45 -45 -82 -85 -82 -88 0 -13 85 -62 138 -80 96 -33 92 -37 92 106 0 125 0 125 -26 135 -37 14 -32 17 -122 -73z"/> <path d="M1873 1010 c-22 -9 -23 -14 -23 -136 l0 -126 38 7 c45 8 168 63 184 82 9 11 -5 30 -73 99 -87 87 -89 89 -126 74z"/> </g><g transform="translate(0.000000,358.000000) scale(0.100000,-0.100000)" fill="#fca311" class="accent" stroke="none"> <path d="M1752 3318 c-8 -8 -12 -45 -12 -100 0 -82 2 -89 24 -103 19 -13 29 -14 45 -5 19 10 21 20 21 100 0 48 -3 95 -6 104 -7 19 -55 21 -72 4z"/> <path d="M1358 3148 c-37 -31 -31 -49 41 -121 68 -67 71 -69 93 -55 43 28 35 55 -36 124 -70 68 -74 71 -98 52z"/> <path d="M2132 3103 c-87 -88 -88 -90 -67 -113 30 -33 56 -24 118 38 62 62 74 102 38 122 -28 15 -27 15 -89 -47z"/> <path d="M1653 3006 c-168 -80 -238 -281 -155 -449 79 -161 276 -224 438 -142 228 117 229 456 2 580 -77 42 -209 47 -285 11z"/> <path d="M2210 2747 c-53 -27 -26 -87 39 -87 93 0 142 12 154 38 10 21 8 27 -12 43 -28 23 -141 26 -181 6z"/> <path d="M1177 2744 c-15 -15 -7 -63 12 -74 28 -15 163 -13 185 3 12 9 17 23 14 42 -3 30 -3 30 -104 33 -55 1 -103 0 -107 -4z"/> <path d="M1394 2398 c-64 -61 -77 -91 -52 -116 23 -23 46 -12 107 53 66 71 71 83 43 108 -26 24 -27 24 -98 -45z"/> <path d="M2070 2430 c-14 -27 -4 -44 64 -108 60 -57 90 -65 107 -28 14 29 6 41 -67 109 -55 51 -87 59 -104 27z"/> </g></svg>
